# xmcd CD database file
#
# Track frame offsets:
#	150
#	24967
#	41485
#	61410
#	84502
#	106855
#	126407
#	153147
#	174877
#	200087
#
# Disc length: 2912 seconds
#
# Revision: 0
# Processed by: cddbd v1.5.1PL0 Copyright (c) Steve Scherf et al.
# Submitted via: CDex 1.60beta1
#
DISCID=760b5e0a
DTITLE=Johnny Baltimore - Bedroom Whispers
DYEAR=1900
DGENRE=Jazz
TTITLE0=Isabelle
TTITLE1=Silence
TTITLE2=Closer
TTITLE3=Without You
TTITLE4=We Made Love
TTITLE5=One By One
TTITLE6=Satin Sheets
TTITLE7=Shifting Sand
TTITLE8=Bedroom Whispers
TTITLE9=Come Away
EXTD=
EXTT0=
EXTT1=
EXTT2=
EXTT3=
EXTT4=
EXTT5=
EXTT6=
EXTT7=
EXTT8=
EXTT9=
PLAYORDER=
